<svg width="103" height="40" viewBox="0 0 103 40" fill="none" xmlns="http://www.w3.org/2000/svg">
<path fill-rule="evenodd" clip-rule="evenodd" d="M42.007 28.882H35.4464V10.6419C35.4464 3.65784 39.2982 0.740234 44.7845 0.740234H52.3774L52.3808 8.37883H56.6267L56.6232 15.1382H52.3774V18.0784C52.3774 20.6864 52.3448 22.1093 55.1352 22.1093H56.6232L56.633 28.8883C56.633 28.8883 56.0371 28.8816 54.8618 28.8816C48.0208 28.8816 45.8786 26.0001 45.8786 19.4781V8.38183H44.153C42.7236 8.38183 41.9584 9.06232 41.9584 11.0062V13.9301H45.0223V20.416H42.0138L42.007 28.882Z" fill="white"/>
<mask id="mask0_2213_213" style="mask-type:luminance" maskUnits="userSpaceOnUse" x="0" y="8" width="15" height="22">
<path d="M0.00165345 8.22974H14.7304V29.0683H0L0.00165345 8.22974Z" fill="white"/>
</mask>
<g mask="url(#mask0_2213_213)">
<path fill-rule="evenodd" clip-rule="evenodd" d="M14.5387 8.27143L14.532 15.35C14.532 15.35 11.8132 15.2426 11.2011 18.5507C10.5694 21.9631 10.5564 24.8576 7.35569 27.0554C5.7212 28.182 3.41589 28.8494 1.6381 28.8885H0.0166016L0.062186 22.1355C0.062186 22.1355 3.75455 21.7545 4.39922 19.2701C4.98531 17.0039 4.52293 13.8 6.62634 11.4263C8.85349 8.91919 11.1229 8.27118 13.451 8.27118C14.0533 8.26143 14.5387 8.27143 14.5387 8.27143Z" fill="white"/>
</g>
<path fill-rule="evenodd" clip-rule="evenodd" d="M14.4159 18.6197C14.4159 12.9639 19.0002 8.37964 24.656 8.37964C30.3147 8.37964 34.8995 12.9639 34.8995 18.6197C34.8995 24.2785 30.3152 28.8632 24.656 28.8632C19.0002 28.8632 14.4159 24.2789 14.4159 18.6197ZM21.0159 18.6231C21.0159 16.6109 22.6439 14.9829 24.6561 14.9829C26.6651 14.9829 28.2963 16.6109 28.2963 18.6231C28.2963 20.6321 26.6651 22.2633 24.6561 22.2633C22.6439 22.2633 21.0159 20.6321 21.0159 18.6231Z" fill="white"/>
<mask id="mask1_2213_213" style="mask-type:luminance" maskUnits="userSpaceOnUse" x="51" y="0" width="18" height="12">
<path d="M51.39 0H68.1053V11.5503H51.39V0Z" fill="white"/>
</mask>
<g mask="url(#mask1_2213_213)">
<path d="M56.7968 3.5444C56.7968 1.83041 58.1844 0.446215 59.895 0.446215C61.6057 0.446215 62.9932 1.83041 62.9932 3.5444C62.9932 5.25512 61.6056 6.64258 59.895 6.64258C58.1843 6.64258 56.7968 5.25504 56.7968 3.5444Z" stroke="white" stroke-width="0.889254" stroke-miterlimit="3.864"/>
</g>
<path d="M69.8972 28.4463H63.9944V17.1091C63.9944 17.1091 63.9814 8.56217 72.5217 8.58182C81.2288 8.6013 81.2288 17.0992 81.2288 17.0992L81.2419 28.4459H75.2447V18.8556C75.2447 18.8556 75.4732 15.5648 72.6036 15.5648C69.7371 15.5648 69.8971 18.8263 69.8971 18.8263L69.8972 28.4463Z" stroke="white" stroke-width="0.889256" stroke-miterlimit="3.864"/>
<mask id="mask2_2213_213" style="mask-type:luminance" maskUnits="userSpaceOnUse" x="51" y="3" width="52" height="37">
<path d="M51.5488 3.36182H102.703V39.0223H51.5488V3.36182Z" fill="white"/>
</mask>
<g mask="url(#mask2_2213_213)">
<path d="M87.006 37.0303V31.4052C92.3013 32.5446 95.6804 31.0558 95.6804 26.7497V18.4313C95.6804 16.4071 94.0807 14.7944 92.0762 14.7944C90.039 14.7944 88.374 16.4071 88.374 18.4313C88.374 20.4554 90.5059 22.708 93.1666 21.9213V27.5757C87.0058 29.0213 82.2783 23.8306 82.2783 18.4308C82.2783 13.0048 86.5942 8.65649 92.0759 8.65649C97.417 8.65649 101.798 13.0051 101.798 18.4308V24.9896C101.798 32.6323 97.5673 37.3823 91.1198 37.3823C89.605 37.3823 87.006 37.0303 87.006 37.0303ZM56.7254 28.498H62.3968L62.4033 8.87672H56.7254V28.498Z" stroke="white" stroke-width="0.889254" stroke-miterlimit="3.864"/>
</g>
</svg>
